<mxfile host="Electron" agent="Mozilla/5.0 (Windows NT 10.0; Win64; x64) AppleWebKit/537.36 (KHTML, like Gecko) draw.io/27.0.9 Chrome/134.0.6998.205 Electron/35.4.0 Safari/537.36" version="27.0.9">
  <diagram name="Сторінка-1" id="2KrscjZvGfGf7dFvMMu-">
    <mxGraphModel dx="1028" dy="595" grid="1" gridSize="10" guides="1" tooltips="1" connect="1" arrows="1" fold="1" page="1" pageScale="1" pageWidth="827" pageHeight="1169" math="0" shadow="0">
      <root>
        <mxCell id="0" />
        <mxCell id="1" parent="0" />
        <mxCell id="lbXGy-CBBLem_o1jgjsc-1" value="" style="rounded=0;whiteSpace=wrap;html=1;" vertex="1" parent="1">
          <mxGeometry x="130" y="50" width="980" height="550" as="geometry" />
        </mxCell>
        <mxCell id="cBfiYQpe3X7bh-aue6U3-1" value="&lt;font style=&quot;font-size: 19px;&quot;&gt;&lt;b&gt;Data Flow&lt;/b&gt;&lt;/font&gt;" style="text;html=1;align=center;verticalAlign=middle;whiteSpace=wrap;rounded=0;" parent="1" vertex="1">
          <mxGeometry x="450" y="100" width="140" height="30" as="geometry" />
        </mxCell>
        <mxCell id="cBfiYQpe3X7bh-aue6U3-2" value="&lt;b&gt;&lt;font style=&quot;font-size: 18px;&quot;&gt;Source&lt;/font&gt;&lt;/b&gt;" style="text;html=1;align=center;verticalAlign=middle;whiteSpace=wrap;rounded=1;fillColor=#e1d5e7;strokeColor=#9673a6;gradientColor=none;arcSize=40;" parent="1" vertex="1">
          <mxGeometry x="170" y="180" width="200" height="30" as="geometry" />
        </mxCell>
        <mxCell id="cBfiYQpe3X7bh-aue6U3-3" value="&lt;b&gt;&lt;font style=&quot;font-size: 18px;&quot;&gt;Bronze&lt;/font&gt;&lt;/b&gt;" style="text;html=1;align=center;verticalAlign=middle;whiteSpace=wrap;rounded=1;fillColor=#ffe6cc;strokeColor=#d79b00;arcSize=40;" parent="1" vertex="1">
          <mxGeometry x="420" y="180" width="190" height="30" as="geometry" />
        </mxCell>
        <mxCell id="cBfiYQpe3X7bh-aue6U3-4" value="&lt;b&gt;&lt;font style=&quot;font-size: 18px;&quot;&gt;Silver&lt;/font&gt;&lt;/b&gt;" style="text;html=1;align=center;verticalAlign=middle;whiteSpace=wrap;rounded=1;fillColor=#f5f5f5;strokeColor=#666666;arcSize=40;fontColor=#333333;" parent="1" vertex="1">
          <mxGeometry x="650" y="180" width="200" height="30" as="geometry" />
        </mxCell>
        <mxCell id="cBfiYQpe3X7bh-aue6U3-5" value="&lt;b&gt;&lt;font style=&quot;font-size: 18px;&quot;&gt;Gold&lt;/font&gt;&lt;/b&gt;" style="text;html=1;align=center;verticalAlign=middle;whiteSpace=wrap;rounded=1;fillColor=#fff2cc;strokeColor=#d6b656;arcSize=40;" parent="1" vertex="1">
          <mxGeometry x="880" y="180" width="190" height="30" as="geometry" />
        </mxCell>
        <mxCell id="cBfiYQpe3X7bh-aue6U3-6" value="" style="rounded=0;whiteSpace=wrap;html=1;" parent="1" vertex="1">
          <mxGeometry x="170" y="230" width="200" height="260" as="geometry" />
        </mxCell>
        <mxCell id="cBfiYQpe3X7bh-aue6U3-9" value="" style="whiteSpace=wrap;html=1;shape=mxgraph.basic.document" parent="1" vertex="1">
          <mxGeometry x="190" y="240" width="40" height="50" as="geometry" />
        </mxCell>
        <mxCell id="cBfiYQpe3X7bh-aue6U3-10" value="csv" style="text;html=1;align=center;verticalAlign=middle;whiteSpace=wrap;rounded=0;" parent="1" vertex="1">
          <mxGeometry x="180" y="260" width="60" height="30" as="geometry" />
        </mxCell>
        <mxCell id="cBfiYQpe3X7bh-aue6U3-11" value="&lt;b style=&quot;font-size: 14px;&quot;&gt;encounters&lt;/b&gt;" style="text;html=1;align=center;verticalAlign=middle;whiteSpace=wrap;rounded=0;" parent="1" vertex="1">
          <mxGeometry x="230" y="260" width="140" height="30" as="geometry" />
        </mxCell>
        <mxCell id="cBfiYQpe3X7bh-aue6U3-12" value="" style="whiteSpace=wrap;html=1;shape=mxgraph.basic.document" parent="1" vertex="1">
          <mxGeometry x="190" y="300" width="40" height="50" as="geometry" />
        </mxCell>
        <mxCell id="cBfiYQpe3X7bh-aue6U3-13" value="csv" style="text;html=1;align=center;verticalAlign=middle;whiteSpace=wrap;rounded=0;" parent="1" vertex="1">
          <mxGeometry x="180" y="320" width="60" height="30" as="geometry" />
        </mxCell>
        <mxCell id="cBfiYQpe3X7bh-aue6U3-14" value="&lt;b style=&quot;font-size: 14px;&quot;&gt;procedure_table&lt;/b&gt;" style="text;html=1;align=center;verticalAlign=middle;whiteSpace=wrap;rounded=0;" parent="1" vertex="1">
          <mxGeometry x="230" y="320" width="140" height="30" as="geometry" />
        </mxCell>
        <mxCell id="cBfiYQpe3X7bh-aue6U3-15" value="" style="whiteSpace=wrap;html=1;shape=mxgraph.basic.document" parent="1" vertex="1">
          <mxGeometry x="190" y="360" width="40" height="50" as="geometry" />
        </mxCell>
        <mxCell id="cBfiYQpe3X7bh-aue6U3-16" value="csv" style="text;html=1;align=center;verticalAlign=middle;whiteSpace=wrap;rounded=0;" parent="1" vertex="1">
          <mxGeometry x="180" y="380" width="60" height="30" as="geometry" />
        </mxCell>
        <mxCell id="cBfiYQpe3X7bh-aue6U3-17" value="&lt;span style=&quot;font-size: 14px;&quot;&gt;&lt;b&gt;patients&lt;/b&gt;&lt;/span&gt;" style="text;html=1;align=center;verticalAlign=middle;whiteSpace=wrap;rounded=0;" parent="1" vertex="1">
          <mxGeometry x="230" y="380" width="140" height="30" as="geometry" />
        </mxCell>
        <mxCell id="cBfiYQpe3X7bh-aue6U3-18" value="" style="whiteSpace=wrap;html=1;shape=mxgraph.basic.document" parent="1" vertex="1">
          <mxGeometry x="190" y="420" width="40" height="50" as="geometry" />
        </mxCell>
        <mxCell id="cBfiYQpe3X7bh-aue6U3-19" value="csv" style="text;html=1;align=center;verticalAlign=middle;whiteSpace=wrap;rounded=0;" parent="1" vertex="1">
          <mxGeometry x="180" y="440" width="60" height="30" as="geometry" />
        </mxCell>
        <mxCell id="cBfiYQpe3X7bh-aue6U3-20" value="&lt;span style=&quot;font-size: 14px;&quot;&gt;&lt;b&gt;payers&lt;/b&gt;&lt;/span&gt;" style="text;html=1;align=center;verticalAlign=middle;whiteSpace=wrap;rounded=0;" parent="1" vertex="1">
          <mxGeometry x="230" y="440" width="140" height="30" as="geometry" />
        </mxCell>
        <mxCell id="cBfiYQpe3X7bh-aue6U3-21" value="" style="rounded=0;whiteSpace=wrap;html=1;" parent="1" vertex="1">
          <mxGeometry x="410" y="230" width="200" height="260" as="geometry" />
        </mxCell>
        <mxCell id="cBfiYQpe3X7bh-aue6U3-26" value="&lt;b style=&quot;font-size: 14px;&quot;&gt;encounters&lt;/b&gt;" style="text;html=1;align=center;verticalAlign=middle;whiteSpace=wrap;rounded=0;" parent="1" vertex="1">
          <mxGeometry x="440" y="260" width="140" height="30" as="geometry" />
        </mxCell>
        <mxCell id="cBfiYQpe3X7bh-aue6U3-27" value="&lt;b style=&quot;font-size: 14px;&quot;&gt;procedure_table&lt;/b&gt;" style="text;html=1;align=center;verticalAlign=middle;whiteSpace=wrap;rounded=0;" parent="1" vertex="1">
          <mxGeometry x="440" y="320" width="140" height="30" as="geometry" />
        </mxCell>
        <mxCell id="cBfiYQpe3X7bh-aue6U3-28" value="&lt;span style=&quot;font-size: 14px;&quot;&gt;&lt;b&gt;patients&lt;/b&gt;&lt;/span&gt;" style="text;html=1;align=center;verticalAlign=middle;whiteSpace=wrap;rounded=0;" parent="1" vertex="1">
          <mxGeometry x="440" y="380" width="140" height="30" as="geometry" />
        </mxCell>
        <mxCell id="cBfiYQpe3X7bh-aue6U3-29" value="&lt;span style=&quot;font-size: 14px;&quot;&gt;&lt;b&gt;payers&lt;/b&gt;&lt;/span&gt;" style="text;html=1;align=center;verticalAlign=middle;whiteSpace=wrap;rounded=0;" parent="1" vertex="1">
          <mxGeometry x="440" y="440" width="140" height="30" as="geometry" />
        </mxCell>
        <mxCell id="cBfiYQpe3X7bh-aue6U3-30" value="" style="rounded=0;whiteSpace=wrap;html=1;" parent="1" vertex="1">
          <mxGeometry x="650" y="230" width="200" height="260" as="geometry" />
        </mxCell>
        <mxCell id="cBfiYQpe3X7bh-aue6U3-32" value="&lt;b style=&quot;font-size: 14px;&quot;&gt;encounters&lt;/b&gt;" style="text;html=1;align=center;verticalAlign=middle;whiteSpace=wrap;rounded=0;" parent="1" vertex="1">
          <mxGeometry x="680" y="260" width="140" height="30" as="geometry" />
        </mxCell>
        <mxCell id="cBfiYQpe3X7bh-aue6U3-33" value="&lt;b style=&quot;font-size: 14px;&quot;&gt;procedure_table&lt;/b&gt;" style="text;html=1;align=center;verticalAlign=middle;whiteSpace=wrap;rounded=0;" parent="1" vertex="1">
          <mxGeometry x="680" y="320" width="140" height="30" as="geometry" />
        </mxCell>
        <mxCell id="cBfiYQpe3X7bh-aue6U3-34" value="&lt;span style=&quot;font-size: 14px;&quot;&gt;&lt;b&gt;patients&lt;/b&gt;&lt;/span&gt;" style="text;html=1;align=center;verticalAlign=middle;whiteSpace=wrap;rounded=0;" parent="1" vertex="1">
          <mxGeometry x="680" y="380" width="140" height="30" as="geometry" />
        </mxCell>
        <mxCell id="cBfiYQpe3X7bh-aue6U3-35" value="&lt;span style=&quot;font-size: 14px;&quot;&gt;&lt;b&gt;payers&lt;/b&gt;&lt;/span&gt;" style="text;html=1;align=center;verticalAlign=middle;whiteSpace=wrap;rounded=0;" parent="1" vertex="1">
          <mxGeometry x="680" y="440" width="140" height="30" as="geometry" />
        </mxCell>
        <mxCell id="cBfiYQpe3X7bh-aue6U3-36" value="" style="rounded=0;whiteSpace=wrap;html=1;" parent="1" vertex="1">
          <mxGeometry x="880" y="230" width="200" height="260" as="geometry" />
        </mxCell>
        <mxCell id="cBfiYQpe3X7bh-aue6U3-37" value="&lt;b style=&quot;font-size: 14px;&quot;&gt;fact_encounters&lt;/b&gt;" style="text;html=1;align=center;verticalAlign=middle;whiteSpace=wrap;rounded=0;" parent="1" vertex="1">
          <mxGeometry x="910" y="260" width="140" height="30" as="geometry" />
        </mxCell>
        <mxCell id="cBfiYQpe3X7bh-aue6U3-38" value="&lt;span style=&quot;font-size: 14px;&quot;&gt;&lt;b&gt;dim_procedures&lt;/b&gt;&lt;/span&gt;" style="text;html=1;align=center;verticalAlign=middle;whiteSpace=wrap;rounded=0;" parent="1" vertex="1">
          <mxGeometry x="910" y="320" width="140" height="30" as="geometry" />
        </mxCell>
        <mxCell id="cBfiYQpe3X7bh-aue6U3-39" value="&lt;span style=&quot;font-size: 14px;&quot;&gt;&lt;b&gt;dim_patients&lt;/b&gt;&lt;/span&gt;" style="text;html=1;align=center;verticalAlign=middle;whiteSpace=wrap;rounded=0;" parent="1" vertex="1">
          <mxGeometry x="910" y="380" width="140" height="30" as="geometry" />
        </mxCell>
        <mxCell id="cBfiYQpe3X7bh-aue6U3-40" value="&lt;span style=&quot;font-size: 14px;&quot;&gt;&lt;b&gt;dim_payers&lt;/b&gt;&lt;/span&gt;" style="text;html=1;align=center;verticalAlign=middle;whiteSpace=wrap;rounded=0;" parent="1" vertex="1">
          <mxGeometry x="910" y="440" width="140" height="30" as="geometry" />
        </mxCell>
        <mxCell id="cBfiYQpe3X7bh-aue6U3-42" value="" style="endArrow=classic;html=1;rounded=0;" parent="1" edge="1">
          <mxGeometry width="50" height="50" relative="1" as="geometry">
            <mxPoint x="360" y="274.29" as="sourcePoint" />
            <mxPoint x="430" y="274.58" as="targetPoint" />
          </mxGeometry>
        </mxCell>
        <mxCell id="cBfiYQpe3X7bh-aue6U3-43" value="" style="endArrow=classic;html=1;rounded=0;" parent="1" edge="1">
          <mxGeometry width="50" height="50" relative="1" as="geometry">
            <mxPoint x="360" y="334.29" as="sourcePoint" />
            <mxPoint x="430" y="334.58" as="targetPoint" />
          </mxGeometry>
        </mxCell>
        <mxCell id="cBfiYQpe3X7bh-aue6U3-44" value="" style="endArrow=classic;html=1;rounded=0;" parent="1" edge="1">
          <mxGeometry width="50" height="50" relative="1" as="geometry">
            <mxPoint x="360" y="394.29" as="sourcePoint" />
            <mxPoint x="430" y="394.58" as="targetPoint" />
          </mxGeometry>
        </mxCell>
        <mxCell id="cBfiYQpe3X7bh-aue6U3-48" value="" style="endArrow=classic;html=1;rounded=0;" parent="1" edge="1">
          <mxGeometry width="50" height="50" relative="1" as="geometry">
            <mxPoint x="360" y="454.29" as="sourcePoint" />
            <mxPoint x="430" y="454.58" as="targetPoint" />
          </mxGeometry>
        </mxCell>
        <mxCell id="cBfiYQpe3X7bh-aue6U3-50" value="" style="endArrow=classic;html=1;rounded=0;" parent="1" edge="1">
          <mxGeometry width="50" height="50" relative="1" as="geometry">
            <mxPoint x="600" y="274.29" as="sourcePoint" />
            <mxPoint x="670" y="274.58" as="targetPoint" />
          </mxGeometry>
        </mxCell>
        <mxCell id="cBfiYQpe3X7bh-aue6U3-51" value="" style="endArrow=classic;html=1;rounded=0;" parent="1" edge="1">
          <mxGeometry width="50" height="50" relative="1" as="geometry">
            <mxPoint x="600" y="334.29" as="sourcePoint" />
            <mxPoint x="670" y="334.58" as="targetPoint" />
          </mxGeometry>
        </mxCell>
        <mxCell id="cBfiYQpe3X7bh-aue6U3-52" value="" style="endArrow=classic;html=1;rounded=0;" parent="1" edge="1">
          <mxGeometry width="50" height="50" relative="1" as="geometry">
            <mxPoint x="600" y="394.29" as="sourcePoint" />
            <mxPoint x="670" y="394.58" as="targetPoint" />
          </mxGeometry>
        </mxCell>
        <mxCell id="cBfiYQpe3X7bh-aue6U3-53" value="" style="endArrow=classic;html=1;rounded=0;" parent="1" edge="1">
          <mxGeometry width="50" height="50" relative="1" as="geometry">
            <mxPoint x="600" y="454.29" as="sourcePoint" />
            <mxPoint x="670" y="454.58" as="targetPoint" />
          </mxGeometry>
        </mxCell>
        <mxCell id="cBfiYQpe3X7bh-aue6U3-54" value="" style="endArrow=classic;html=1;rounded=0;" parent="1" edge="1">
          <mxGeometry width="50" height="50" relative="1" as="geometry">
            <mxPoint x="827" y="274.29" as="sourcePoint" />
            <mxPoint x="897" y="274.58" as="targetPoint" />
          </mxGeometry>
        </mxCell>
        <mxCell id="cBfiYQpe3X7bh-aue6U3-55" value="" style="endArrow=classic;html=1;rounded=0;" parent="1" edge="1">
          <mxGeometry width="50" height="50" relative="1" as="geometry">
            <mxPoint x="827" y="334.29" as="sourcePoint" />
            <mxPoint x="897" y="334.58" as="targetPoint" />
          </mxGeometry>
        </mxCell>
        <mxCell id="cBfiYQpe3X7bh-aue6U3-56" value="" style="endArrow=classic;html=1;rounded=0;" parent="1" edge="1">
          <mxGeometry width="50" height="50" relative="1" as="geometry">
            <mxPoint x="827" y="394.29" as="sourcePoint" />
            <mxPoint x="897" y="394.58" as="targetPoint" />
          </mxGeometry>
        </mxCell>
        <mxCell id="cBfiYQpe3X7bh-aue6U3-57" value="" style="endArrow=classic;html=1;rounded=0;" parent="1" edge="1">
          <mxGeometry width="50" height="50" relative="1" as="geometry">
            <mxPoint x="827" y="454.29" as="sourcePoint" />
            <mxPoint x="897" y="454.58" as="targetPoint" />
          </mxGeometry>
        </mxCell>
      </root>
    </mxGraphModel>
  </diagram>
</mxfile>
